<?xml version="1.0" standalone="no"?>
<!DOCTYPE svg PUBLIC "-//W3C//DTD SVG 20010904//EN"
 "http://www.w3.org/TR/2001/REC-SVG-20010904/DTD/svg10.dtd">
<svg version="1.0" xmlns="http://www.w3.org/2000/svg"
 width="1000.000000pt" height="1138.000000pt" viewBox="0 0 1000.000000 1138.000000"
 preserveAspectRatio="xMidYMid meet">

<g transform="translate(0.000000,1138.000000) scale(0.100000,-0.100000)"
fill="#000000" stroke="none">
<path d="M2140 11373 c-35 -13 -72 -48 -93 -86 -22 -41 -22 -49 -22 -407 0
-357 1 -367 24 -435 49 -147 142 -277 249 -348 37 -25 391 -231 787 -458 396
-227 1037 -594 1425 -817 388 -222 765 -438 838 -481 74 -42 151 -93 172 -114
92 -91 74 -201 -45 -281 -86 -58 -2066 -1187 -2108 -1202 -93 -33 -175 -3
-217 81 l-25 50 -5 760 -5 760 -27 73 c-39 108 -84 178 -168 262 -67 67 -103
91 -350 231 -151 86 -292 162 -314 169 -49 16 -121 8 -155 -17 -14 -11 -37
-40 -51 -64 l-25 -44 0 -2020 0 -2020 22 -42 c40 -74 116 -107 198 -84 51 14
-24 -29 1695 955 806 462 1980 1133 2610 1494 753 430 1159 668 1187 694 80
77 78 171 -5 250 -20 20 -260 163 -532 318 -272 156 -946 541 -1498 857 -2907
1664 -3416 1953 -3450 1963 -40 11 -88 12 -112 3z"/>
<path d="M5155 3679 c-414 -31 -744 -318 -812 -709 -20 -112 -12 -297 17 -398
52 -184 176 -358 331 -463 149 -101 314 -155 504 -165 475 -26 860 232 971
651 28 106 26 342 -3 447 -30 102 -62 173 -114 250 -190 280 -504 416 -894
387z m214 -400 c157 -36 282 -162 326 -330 19 -71 19 -200 0 -274 -73 -280
-368 -419 -631 -296 -161 75 -254 235 -254 436 0 230 126 406 330 461 55 15
170 17 229 3z"/>
<path d="M0 2810 l0 -842 478 5 c431 4 486 6 567 24 349 78 572 279 656 589
31 113 31 345 1 456 -68 252 -237 436 -492 537 -158 62 -178 64 -717 68 l-493
4 0 -841z m923 445 c83 -21 133 -50 198 -112 172 -163 174 -489 5 -659 -105
-105 -219 -136 -479 -132 l-172 3 -3 458 -2 457 198 0 c143 0 214 -4 255 -15z"/>
<path d="M2095 3613 c112 -270 691 -1621 698 -1631 8 -9 63 -12 239 -10 l230
3 299 700 c165 385 326 762 358 838 l59 137 -236 -2 -235 -3 -227 -533 c-124
-294 -230 -534 -234 -535 -4 -1 -108 239 -230 533 l-223 535 -257 3 -256 2 15
-37z"/>
<path d="M6620 3465 l0 -185 255 0 255 0 0 -655 0 -655 238 2 237 3 3 653 2
652 255 0 255 0 0 185 0 185 -750 0 -750 0 0 -185z"/>
<path d="M8655 3638 c-3 -7 -4 -384 -3 -838 l3 -825 673 -3 672 -2 0 185 0
185 -440 0 -441 0 3 153 3 152 373 3 372 2 0 175 0 175 -372 2 -373 3 -3 137
-3 138 423 2 423 3 3 183 2 182 -655 0 c-515 0 -657 -3 -660 -12z"/>
<path d="M2296 1269 c-236 -39 -424 -202 -507 -436 -29 -83 -36 -246 -15 -338
29 -121 80 -209 176 -305 96 -96 168 -137 296 -170 76 -20 118 -20 2754 -20
2636 0 2678 0 2754 20 128 33 200 74 296 170 142 141 197 282 187 480 -9 171
-65 298 -187 420 -79 79 -170 134 -280 168 -51 15 -244 17 -2740 18 -1477 1
-2707 -2 -2734 -7z m397 -382 c45 -27 77 -75 77 -116 0 -19 -6 -21 -53 -21
-49 0 -53 2 -64 30 -13 35 -54 54 -101 46 -45 -7 -62 -23 -62 -56 0 -36 24
-56 96 -80 131 -45 184 -96 184 -179 0 -56 -27 -104 -72 -127 -43 -22 -154
-30 -204 -14 -77 25 -134 86 -134 145 0 24 3 25 55 25 49 0 55 -2 55 -20 0
-12 11 -32 25 -45 19 -20 34 -25 72 -25 60 0 93 21 93 59 0 36 -23 56 -91 80
-169 58 -228 135 -180 233 33 69 98 100 198 94 44 -3 75 -11 106 -29z m677 2
c114 -64 155 -264 83 -409 -39 -76 -90 -110 -176 -117 -58 -5 -73 -2 -123 22
-72 35 -108 89 -124 186 -35 204 73 358 242 345 34 -2 73 -13 98 -27z m748
-26 l3 -43 -125 0 -126 0 0 -70 0 -70 110 0 110 0 0 -45 0 -45 -110 0 -110 0
0 -110 0 -110 -55 0 -55 0 0 270 0 270 178 -2 177 -3 3 -42z m672 2 l0 -45
-85 0 -85 0 0 -225 0 -225 -55 0 -55 0 0 225 0 225 -85 0 -85 0 0 45 0 45 225
0 225 0 0 -45z m371 -139 c18 -102 36 -182 39 -180 3 3 23 85 45 182 l41 177
49 0 49 0 42 -178 c22 -97 43 -179 46 -182 2 -3 20 78 38 180 l34 185 57 0 57
0 -9 -37 c-50 -228 -109 -494 -109 -498 0 -3 -27 -5 -59 -5 l-59 0 -42 176
c-23 96 -43 174 -45 172 -1 -2 -22 -81 -45 -175 l-42 -173 -57 0 -58 0 -22 98
c-12 53 -39 175 -60 270 l-38 172 57 0 57 0 34 -184z m1092 -79 c53 -144 97
-265 97 -269 0 -5 -26 -8 -58 -8 l-58 0 -18 55 -17 55 -98 0 -97 0 -18 -55
-17 -55 -61 0 c-44 0 -59 3 -55 13 2 6 44 118 92 247 48 129 91 245 96 258 7
19 16 22 61 22 l53 0 98 -263z m638 252 c21 -7 53 -27 71 -46 31 -32 33 -38
33 -109 l0 -75 -43 -41 -43 -40 56 -104 c30 -58 55 -107 55 -110 0 -2 -27 -4
-60 -4 l-60 0 -50 101 -51 100 -42 -3 -42 -3 -3 -97 -3 -98 -54 0 -55 0 0 270
0 270 126 0 c70 0 144 -5 165 -11z m749 -34 l0 -45 -125 0 -125 0 0 -65 0 -65
110 0 110 0 0 -45 0 -45 -110 0 -110 0 0 -70 0 -70 125 0 125 0 0 -45 0 -45
-180 0 -180 0 0 270 0 270 180 0 180 0 0 -45z"/>
<path d="M3220 816 c-51 -16 -80 -78 -80 -171 0 -126 31 -182 107 -192 46 -6
88 22 109 73 18 43 18 185 1 227 -25 58 -78 82 -137 63z"/>
<path d="M6098 754 c-12 -21 -60 -176 -55 -180 2 -3 31 -4 64 -2 l60 3 -32 94
c-17 52 -34 91 -37 85z"/>
<path d="M6710 740 l0 -80 69 0 c63 0 71 2 90 26 28 36 27 79 -4 109 -21 22
-33 25 -90 25 l-65 0 0 -80z"/>
</g>
</svg>
